<?xml version="1.0" encoding="UTF-8"?>
<!DOCTYPE svg PUBLIC "-//W3C//DTD SVG 1.1//EN" "http://www.w3.org/Graphics/SVG/1.1/DTD/svg11.dtd">
<svg xmlns="http://www.w3.org/2000/svg" xml:space="preserve" width="512px" height="512px" version="1.1" style="shape-rendering:geometricPrecision; text-rendering:geometricPrecision; image-rendering:optimizeQuality; fill-rule:evenodd; clip-rule:evenodd"
viewBox="0 0 512 512"
 xmlns:xlink="http://www.w3.org/1999/xlink">
 <defs>
  <style type="text/css">
   <![CDATA[
    .fil0 {fill:white}
   ]]>
  </style>
      <radialGradient  id="planetGradient" cx="10%" cy="50%" r="180%" fx="0%" fy="50%">
        <stop offset="0%" style="stop-color:#e5cfff;stop-opacity:1" />
        <stop offset="10%" style="stop-color:#e5cfff;stop-opacity:1" />
        <stop offset="20%" style="stop-color:#c3b3da;stop-opacity:1" />
        <stop offset="30%" style="stop-color:rgb(140,120,180);stop-opacity:1" />
        <stop offset="40%" style="stop-color:rgb(60,40,90);stop-opacity:1" />
        <stop offset="100%" style="stop-color:rgb(60,40,90);stop-opacity:1" />
      </radialGradient>
 </defs>
 <g>    
    <g  transform="scale(0.4)">
        <g  transform="translate(-0,-0)">
            <defs>
                <linearGradient id="fil0"><stop offset="0" stop-color="#280b4b" /></linearGradient>
                <linearGradient id="fil2"><stop offset="0" stop-color="#2b0c50" /></linearGradient>
                <linearGradient id="fil1"><stop offset="0" stop-color="#2e0d56" /></linearGradient>
                <linearGradient id="fil3"><stop offset="0" stop-color="#310e5b" /></linearGradient>
                <linearGradient id="fil4"><stop offset="0" stop-color="#340f61" /></linearGradient>
                <linearGradient id="fil7"><stop offset="0" stop-color="#3a116d" /></linearGradient>
                <linearGradient id="fil5"><stop offset="0" stop-color="#3d1273" /></linearGradient>
                <linearGradient id="fil6"><stop offset="0" stop-color="#5b1aaa" /></linearGradient>
                <linearGradient id="fil8"><stop offset="0" stop-color="#5c1aae" /></linearGradient>
            </defs>
            <g id="Layer_x0020_1">
                <rect fill="url(#fil0)" width="1280" height="1280"/>
                <path fill="url(#fil1)" d="M818 314c30,-10 63,14 73,48 2,8 21,35 21,35 54,0 61,-15 96,-17 33,-1 28,45 57,63 46,28 123,-37 137,49 9,53 -97,19 -95,106 3,94 -150,182 -167,134 -23,-65 -14,-90 -37,-142 -3,-7 -5,-97 -26,-147 -10,-26 -95,-104 -59,-129z"/>
                <path fill="url(#fil1)" d="M133 518c-86,35 -3,45 -71,111 -35,34 -27,131 50,48 36,-38 90,-28 144,-28 46,0 71,-99 71,-145 1,-61 33,-109 61,-156 4,-8 5,-9 8,-18 7,-20 20,-17 -14,-11 -32,6 -50,-1 -81,-4 -12,-1 -35,-3 -43,11 -11,18 -7,51 -32,69 -20,13 -46,7 -53,12 -18,12 -19,100 -40,111z"/>
                <path fill="url(#fil2)" d="M98 651c-8,64 -57,59 -98,46l0 93c66,18 80,-7 156,27 111,51 116,-60 153,-124 91,-160 44,-47 44,-239 0,-56 91,-93 141,-135 92,-76 23,-55 -2,-56 -129,-8 -51,97 -153,102 -70,3 -67,119 -54,161 20,66 -43,93 -64,91 -104,-6 -106,-95 -123,34z"/>
                <path fill="url(#fil2)" d="M928 655c32,-159 -41,-63 -48,-184 -6,-114 -153,-49 -95,42 64,101 -91,88 -125,66 -46,-29 -130,103 -75,145 33,26 278,106 250,188 -51,147 -188,132 -70,200 84,49 265,112 234,-111 -30,-216 105,-26 130,-214 5,-32 47,20 57,-75 4,-42 89,-78 87,-8 0,7 3,13 7,19l0 -232c-32,44 -74,95 -147,111 -19,4 -91,-7 -80,55 2,10 69,34 -18,155 -76,105 -128,-55 -107,-157z"/>
                <path fill="url(#fil2)" d="M372 764c-8,4 -14,14 -19,22 -19,26 -25,-8 -15,-29 7,-17 16,-28 23,-46 8,-19 49,-107 69,-100 11,4 20,33 20,47 -1,18 -4,17 2,37 6,17 30,62 8,75 -21,11 -36,-32 -59,-23 -6,3 -17,11 -24,15l-5 2z"/>
                <path fill="url(#fil3)" d="M49 746c111,5 41,-71 138,-71 71,0 100,-24 112,-24 0,21 -47,61 -63,89 -12,21 -152,18 -187,6z"/>
                <path fill="url(#fil3)" d="M617 580c37,-19 19,24 52,9 24,-11 35,-6 39,-7 -1,-9 -20,-19 -28,-29 -5,-7 -52,17 -63,27z"/>
                <path fill="url(#fil1)" d="M708 559c115,4 160,-48 196,143 4,19 11,54 -23,31 -48,-33 11,-73 -82,-68 -25,1 2,-55 -59,-62 -11,-1 -32,-44 -32,-44z"/>
                <path fill="url(#fil3)" d="M320 392c-1,1 -60,68 17,49 11,-3 22,-58 -17,-49z"/>
                <path fill="url(#fil4)" d="M828 621c-134,-59 65,-29 39,19 -6,12 21,26 -39,-19z"/>
                <ellipse fill="url(#fil5)" cx="301" cy="208" rx="2" ry="3"/>
                <ellipse fill="url(#fil5)" cx="841" cy="929" rx="2" ry="3"/>
                <ellipse fill="url(#fil5)" cx="1181" cy="770" rx="2" ry="3"/>
                <path fill="url(#fil3)" d="M67 745c-79,-10 28,65 0,0z"/>
                <path fill="url(#fil3)" d="M393 681c10,-9 39,-97 39,-8 0,26 -21,10 -36,10l-3 -2z"/>
                <path fill="url(#fil1)" d="M881 842c-11,49 -144,80 -18,108 40,9 79,-16 77,-69 -1,-33 45,-122 69,-123 64,-1 146,-90 146,-172 0,-18 -24,52 -36,61 -8,7 -35,44 -52,51 -26,10 -109,84 -123,115 -3,7 -63,29 -63,29z"/>
                <path fill="url(#fil1)" d="M82 707c0,0 29,-20 35,-57 8,-48 145,30 191,-73 16,-36 -7,-118 31,-102 8,30 4,113 -28,131 -26,14 -36,43 -87,41 -97,-4 -91,40 -142,60z"/>
                <path fill="url(#fil1)" d="M187 1081c-42,88 -119,94 -187,80l0 119 435 0c1,-3 2,-5 2,-6 14,-59 -18,-60 -18,-94 0,-51 -58,-61 -40,-96 59,-124 -136,-124 -192,-3z"/>
                <path fill="url(#fil2)" d="M184 1198c-15,17 -128,50 -184,63l0 19 237 0c-4,-25 -27,-22 -27,-33 -1,-12 123,-7 140,-7 47,0 40,-37 28,-46 -56,-40 -31,-20 -68,-95 -40,-80 -110,80 -126,99z"/>
                <path fill="url(#fil2)" d="M598 254c51,-28 82,31 120,-56 16,-37 74,22 101,-38 10,-21 89,1 117,56 25,48 103,32 99,89 -2,29 -67,25 -96,-10 -57,-66 -95,-41 -167,-26 -19,4 -70,-20 -102,-8 -12,5 -62,1 -72,-7z"/>
                <path fill="url(#fil4)" d="M362 900c-5,-22 -102,-25 -93,22 59,8 62,32 93,-22z"/>
                <ellipse fill="url(#fil6)" cx="298" cy="452" rx="2" ry="3"/>
                <ellipse fill="url(#fil6)" cx="977" cy="174" rx="2" ry="3"/>
                <path fill="url(#fil2)" d="M475 376c150,-29 99,-52 163,-72 1,0 387,-8 273,73 -71,50 -81,-29 -139,86 -13,28 -309,-4 -315,-34 -5,-25 -1,-49 18,-53z"/>
                <path fill="url(#fil2)" d="M752 830c-80,-20 -68,-33 -51,-67 -35,8 -70,45 -35,58 27,11 226,43 203,76 -40,58 -146,54 -65,79 9,0 18,-1 29,-3 47,-7 51,-13 83,-19 15,-32 11,-75 -32,-94 -61,-27 -89,-19 -132,-30z"/>
                <path fill="url(#fil7)" d="M293 488c8,-66 48,12 0,0z"/>
                <circle fill="url(#fil5)" cx="166" cy="505" r="8"/>
                <circle fill="url(#fil5)" cx="476" cy="589" r="3"/>
                <circle fill="url(#fil5)" cx="285" cy="490" r="3"/>
                <circle fill="url(#fil5)" cx="482" cy="835" r="3"/>
                <circle fill="url(#fil5)" cx="229" cy="783" r="3"/>
                <circle fill="url(#fil5)" cx="318" cy="1086" r="8"/>
                <circle fill="url(#fil5)" cx="674" cy="1053" r="3"/>
                <circle fill="url(#fil5)" cx="1237" cy="590" r="3"/>
                <circle fill="url(#fil5)" cx="1197" cy="461" r="3"/>
                <circle fill="url(#fil5)" cx="1202" cy="623" r="3"/>
                <circle fill="url(#fil5)" cx="1273" cy="831" r="3"/>
                <circle fill="url(#fil5)" cx="1045" cy="958" r="3"/>
                <circle fill="url(#fil5)" cx="942" cy="470" r="3"/>
                <circle fill="url(#fil5)" cx="796" cy="163" r="3"/>
                <circle fill="url(#fil5)" cx="449" cy="185" r="8"/>
                <circle fill="url(#fil5)" cx="635" cy="231" r="3"/>
                <circle fill="url(#fil5)" cx="33" cy="782" r="8"/>
                <circle fill="url(#fil5)" cx="736" cy="789" r="8"/>
                <circle fill="url(#fil5)" cx="938" cy="700" r="8"/>
                <path fill="url(#fil1)" d="M488 403c27,-3 199,-18 160,-57 -35,-35 171,-14 191,-14 112,0 63,33 36,33 -21,0 -257,-16 -155,40 11,6 14,31 -32,31 -29,0 -231,11 -206,-30 1,-2 -1,-2 6,-3z"/>
                <path fill="url(#fil1)" d="M1038 617c-28,-30 5,-77 -106,-82 0,0 -86,56 31,56 6,0 74,25 75,26z"/>
                <path fill="url(#fil4)" d="M1256 537c-6,-2 -24,1 -38,-8 0,-1 -47,-14 -32,29 4,1 10,3 14,1 1,-6 26,-13 39,-6 26,14 48,-2 17,-16z"/>
                <circle fill="url(#fil8)" cx="1084" cy="1041" r="8"/>
                <circle fill="url(#fil8)" cx="295" cy="468" r="8"/>
                <circle fill="url(#fil8)" cx="1224" cy="549" r="8"/>
                <circle fill="url(#fil6)" cx="772" cy="536" r="3"/>
                <circle fill="url(#fil6)" cx="1180" cy="513" r="3"/>
                <circle fill="url(#fil6)" cx="909" cy="236" r="3"/>
                <circle fill="url(#fil6)" cx="1020" cy="189" r="3"/>
                <circle fill="url(#fil6)" cx="1193" cy="747" r="3"/>
                <circle fill="url(#fil6)" cx="455" cy="1095" r="3"/>
                <circle fill="url(#fil6)" cx="648" cy="399" r="3"/>
                <circle fill="url(#fil6)" cx="712" cy="344" r="3"/>
                <circle fill="url(#fil6)" cx="955" cy="581" r="3"/>
                <circle fill="url(#fil6)" cx="904" cy="507" r="3"/>
            </g>
        </g>
    </g>
 </g>
 <g id="planet" transform="translate(256 256) ">
    <circle cx="0" cy="0" r="110" stroke="#c3b3da" stroke-width="1" fill="url(#planetGradient)" />
 </g>
</svg>
